<mxfile host="app.diagrams.net" modified="2021-03-11T09:45:49.096Z" agent="5.0 (Macintosh; Intel Mac OS X 10_14_6) AppleWebKit/537.36 (KHTML, like Gecko) Chrome/88.0.4324.182 Safari/537.36" etag="XzSFndqUiWehd2YG6G8v" version="14.4.7" type="github">
  <diagram id="-lbBSN20zxJK25SFYOgv" name="Page-1">
    <mxGraphModel dx="946" dy="547" grid="0" gridSize="10" guides="1" tooltips="1" connect="1" arrows="1" fold="1" page="1" pageScale="1" pageWidth="827" pageHeight="1169" math="0" shadow="0">
      <root>
        <mxCell id="0" />
        <mxCell id="1" parent="0" />
        <mxCell id="D8CDRqdtTbtcDeonj_L2-7" style="edgeStyle=orthogonalEdgeStyle;rounded=0;orthogonalLoop=1;jettySize=auto;html=1;exitX=0.5;exitY=1;exitDx=0;exitDy=0;entryX=0.5;entryY=0;entryDx=0;entryDy=0;" edge="1" parent="1" source="D8CDRqdtTbtcDeonj_L2-1" target="D8CDRqdtTbtcDeonj_L2-2">
          <mxGeometry relative="1" as="geometry" />
        </mxCell>
        <mxCell id="D8CDRqdtTbtcDeonj_L2-1" value="规则预处理" style="rounded=0;whiteSpace=wrap;html=1;" vertex="1" parent="1">
          <mxGeometry x="190" y="110" width="120" height="60" as="geometry" />
        </mxCell>
        <mxCell id="D8CDRqdtTbtcDeonj_L2-8" style="edgeStyle=orthogonalEdgeStyle;rounded=0;orthogonalLoop=1;jettySize=auto;html=1;exitX=0.5;exitY=1;exitDx=0;exitDy=0;entryX=0.5;entryY=0;entryDx=0;entryDy=0;" edge="1" parent="1" source="D8CDRqdtTbtcDeonj_L2-2" target="D8CDRqdtTbtcDeonj_L2-3">
          <mxGeometry relative="1" as="geometry" />
        </mxCell>
        <mxCell id="D8CDRqdtTbtcDeonj_L2-9" style="edgeStyle=orthogonalEdgeStyle;rounded=0;orthogonalLoop=1;jettySize=auto;html=1;exitX=0.5;exitY=1;exitDx=0;exitDy=0;" edge="1" parent="1" source="D8CDRqdtTbtcDeonj_L2-2" target="D8CDRqdtTbtcDeonj_L2-4">
          <mxGeometry relative="1" as="geometry" />
        </mxCell>
        <mxCell id="D8CDRqdtTbtcDeonj_L2-2" value="超时执行拦截器" style="rounded=0;whiteSpace=wrap;html=1;" vertex="1" parent="1">
          <mxGeometry x="190" y="200" width="120" height="60" as="geometry" />
        </mxCell>
        <mxCell id="D8CDRqdtTbtcDeonj_L2-10" style="edgeStyle=orthogonalEdgeStyle;rounded=0;orthogonalLoop=1;jettySize=auto;html=1;exitX=0.5;exitY=1;exitDx=0;exitDy=0;entryX=0.5;entryY=0;entryDx=0;entryDy=0;" edge="1" parent="1" source="D8CDRqdtTbtcDeonj_L2-3" target="D8CDRqdtTbtcDeonj_L2-5">
          <mxGeometry relative="1" as="geometry" />
        </mxCell>
        <mxCell id="D8CDRqdtTbtcDeonj_L2-3" value="同步执行器" style="rounded=0;whiteSpace=wrap;html=1;" vertex="1" parent="1">
          <mxGeometry x="120" y="300" width="120" height="60" as="geometry" />
        </mxCell>
        <mxCell id="D8CDRqdtTbtcDeonj_L2-11" style="edgeStyle=orthogonalEdgeStyle;rounded=0;orthogonalLoop=1;jettySize=auto;html=1;exitX=0.5;exitY=1;exitDx=0;exitDy=0;entryX=0.5;entryY=0;entryDx=0;entryDy=0;" edge="1" parent="1" source="D8CDRqdtTbtcDeonj_L2-4" target="D8CDRqdtTbtcDeonj_L2-5">
          <mxGeometry relative="1" as="geometry" />
        </mxCell>
        <mxCell id="D8CDRqdtTbtcDeonj_L2-4" value="异步执行器" style="rounded=0;whiteSpace=wrap;html=1;" vertex="1" parent="1">
          <mxGeometry x="260" y="300" width="120" height="60" as="geometry" />
        </mxCell>
        <mxCell id="D8CDRqdtTbtcDeonj_L2-5" value="规则动作调整" style="rounded=0;whiteSpace=wrap;html=1;" vertex="1" parent="1">
          <mxGeometry x="190" y="400" width="120" height="60" as="geometry" />
        </mxCell>
        <mxCell id="D8CDRqdtTbtcDeonj_L2-12" value="完成业务配置刷选，赛选出本次请求需要过的规则，同时对规则按照优先级排序" style="text;html=1;strokeColor=none;fillColor=none;align=center;verticalAlign=middle;whiteSpace=wrap;rounded=0;" vertex="1" parent="1">
          <mxGeometry x="430" y="118" width="270" height="50" as="geometry" />
        </mxCell>
        <mxCell id="D8CDRqdtTbtcDeonj_L2-13" value="对整个执行过程做超时控制，避免接口长时间无响应" style="text;html=1;strokeColor=none;fillColor=none;align=center;verticalAlign=middle;whiteSpace=wrap;rounded=0;" vertex="1" parent="1">
          <mxGeometry x="432" y="205" width="270" height="50" as="geometry" />
        </mxCell>
        <mxCell id="D8CDRqdtTbtcDeonj_L2-15" value="可选择同步、异步执行器，规则过检的主要逻辑都在这边" style="text;html=1;strokeColor=none;fillColor=none;align=center;verticalAlign=middle;whiteSpace=wrap;rounded=0;" vertex="1" parent="1">
          <mxGeometry x="487" y="280" width="190" height="100" as="geometry" />
        </mxCell>
        <mxCell id="D8CDRqdtTbtcDeonj_L2-16" value="可根据用户配置对规则动作进行调整。" style="text;html=1;strokeColor=none;fillColor=none;align=center;verticalAlign=middle;whiteSpace=wrap;rounded=0;" vertex="1" parent="1">
          <mxGeometry x="498" y="408" width="200" height="60" as="geometry" />
        </mxCell>
        <mxCell id="D8CDRqdtTbtcDeonj_L2-18" style="edgeStyle=orthogonalEdgeStyle;rounded=0;orthogonalLoop=1;jettySize=auto;html=1;exitX=0.5;exitY=1;exitDx=0;exitDy=0;entryX=0.5;entryY=0;entryDx=0;entryDy=0;" edge="1" parent="1" source="D8CDRqdtTbtcDeonj_L2-17" target="D8CDRqdtTbtcDeonj_L2-1">
          <mxGeometry relative="1" as="geometry" />
        </mxCell>
        <mxCell id="D8CDRqdtTbtcDeonj_L2-17" value="规则检测器开始" style="rounded=0;whiteSpace=wrap;html=1;" vertex="1" parent="1">
          <mxGeometry x="192" y="20" width="120" height="60" as="geometry" />
        </mxCell>
      </root>
    </mxGraphModel>
  </diagram>
</mxfile>
